<svg xmlns="http://www.w3.org/2000/svg" xmlns:xlink="http://www.w3.org/1999/xlink" viewBox="0 0 155.56 60.03"><defs><style>.cls-1{fill:none;}.cls-2{fill:url(#linear-gradient);}.cls-3{fill:url(#linear-gradient-2);}.cls-4{fill:url(#linear-gradient-3);}.cls-5{fill:url(#linear-gradient-4);}.cls-6{fill:url(#linear-gradient-5);}.cls-7{clip-path:url(#clip-path);}.cls-8{fill:url(#linear-gradient-6);}.cls-9{fill:url(#linear-gradient-7);}.cls-10{fill:url(#linear-gradient-8);}.cls-11{fill:url(#linear-gradient-11);}.cls-12{fill:url(#linear-gradient-19);}.cls-13{fill:url(#linear-gradient-20);}.cls-14{fill:url(#linear-gradient-22);}.cls-15{fill:url(#linear-gradient-23);}.cls-16{fill:url(#linear-gradient-24);}.cls-17{fill:url(#linear-gradient-26);}.cls-18{fill:url(#linear-gradient-38);}</style><linearGradient id="linear-gradient" x1="21.41" y1="58.67" x2="38.9" y2="25.76" gradientUnits="userSpaceOnUse"><stop offset="0" stop-color="#000002"/><stop offset="0.42" stop-color="#37205c"/><stop offset="0.75" stop-color="#17003b"/><stop offset="1" stop-color="#3d1c58"/></linearGradient><linearGradient id="linear-gradient-2" x1="15.76" y1="51.72" x2="31.75" y2="21.65" gradientUnits="userSpaceOnUse"><stop offset="0" stop-color="#000002"/><stop offset="0.35" stop-color="#37205c"/><stop offset="0.73" stop-color="#17003b"/><stop offset="1" stop-color="#3d1c58"/></linearGradient><linearGradient id="linear-gradient-3" x1="31.56" y1="16.78" x2="36.2" y2="8.05" gradientUnits="userSpaceOnUse"><stop offset="0.02" stop-color="#16003c"/><stop offset="0.59" stop-color="#1c0642"/><stop offset="1" stop-color="#000002"/></linearGradient><linearGradient id="linear-gradient-4" x1="39.17" y1="21.33" x2="45.07" y2="10.22" xlink:href="#linear-gradient-3"/><linearGradient id="linear-gradient-5" x1="-2.41" y1="47.86" x2="24.53" y2="-2.81" gradientUnits="userSpaceOnUse"><stop offset="0" stop-color="#0c0b49"/><stop offset="0.07" stop-color="#1b1753"/><stop offset="0.27" stop-color="#453672"/><stop offset="0.42" stop-color="#52498e"/><stop offset="0.52" stop-color="#856fb1"/><stop offset="0.65" stop-color="#5f5d9e"/><stop offset="0.94" stop-color="#323074"/><stop offset="1" stop-color="#3f3067"/></linearGradient><clipPath id="clip-path"><path class="cls-1" d="M35.8,8.91V19l-5.24-3,0-6.31V7Z"/></clipPath><linearGradient id="linear-gradient-6" x1="7.7" y1="53.44" x2="34.6" y2="2.86" xlink:href="#linear-gradient-5"/><linearGradient id="linear-gradient-7" x1="21.22" y1="16.51" x2="156.72" y2="16.51" xlink:href="#linear-gradient-2"/><linearGradient id="linear-gradient-8" x1="21.22" y1="16.51" x2="156.72" y2="16.51" xlink:href="#linear-gradient-2"/><linearGradient id="linear-gradient-11" x1="21.22" y1="35.43" x2="156.72" y2="35.43" xlink:href="#linear-gradient-2"/><linearGradient id="linear-gradient-19" x1="46.26" y1="49.31" x2="155.76" y2="49.31" xlink:href="#linear-gradient-2"/><linearGradient id="linear-gradient-20" x1="46.26" y1="48.79" x2="155.76" y2="48.79" xlink:href="#linear-gradient-2"/><linearGradient id="linear-gradient-22" x1="46.26" y1="48.75" x2="155.76" y2="48.75" xlink:href="#linear-gradient-2"/><linearGradient id="linear-gradient-23" x1="46.26" y1="48.71" x2="155.76" y2="48.71" xlink:href="#linear-gradient-2"/><linearGradient id="linear-gradient-24" x1="46.26" y1="49.84" x2="155.76" y2="49.84" xlink:href="#linear-gradient-2"/><linearGradient id="linear-gradient-26" x1="46.26" y1="48.77" x2="155.76" y2="48.77" xlink:href="#linear-gradient-2"/><linearGradient id="linear-gradient-38" x1="46.26" y1="49.27" x2="155.76" y2="49.27" xlink:href="#linear-gradient-2"/></defs><title>Asset 4</title><g id="Layer_2" data-name="Layer 2"><g id="Header"><g id="Logo"><path class="cls-2" d="M17.54,55.24,41,41.89a7,7,0,0,0,3.56-6.12V29l-5.21-3v7.07a6.49,6.49,0,0,1-3.23,5.61L12.86,52.29l1.11,2A2.62,2.62,0,0,0,17.54,55.24Z"/><path class="cls-3" d="M10.84,49.1,32.27,36.93a7,7,0,0,0,3.56-6.13V24.06l-5.21-3v7.07a6.51,6.51,0,0,1-3.22,5.62L10,43.86Z"/><path class="cls-4" d="M30.56,8.42v7.63l5.24,3V7.84S35.91,8.35,30.56,8.42Z"/><path class="cls-5" d="M39.31,8.07V21.21l5.24,3V13A4.81,4.81,0,0,0,39.31,8.07Z"/><path class="cls-6" d="M9.56,14.88,27.45,4.35a6.67,6.67,0,0,1,4.71-1,5.53,5.53,0,0,1,2.49,1.14S32.76,0,28.12,0a11.67,11.67,0,0,0-5.81,1.34L4.44,11.56A8.85,8.85,0,0,0,0,19.22V46.09c0,4.22,4.61,6.4,8.22,4.22h0a2.39,2.39,0,0,1-2.7-2.37v-26A8.2,8.2,0,0,1,9.56,14.88Z"/><g class="cls-7"><path class="cls-1" d="M19.5,24.2a10.24,10.24,0,0,0-5.29,8.94V49.7a4.91,4.91,0,0,0,7.32,4.21l14.39-8a10.27,10.27,0,0,0,5.31-9V31l5.34,2.39v7.4a8.68,8.68,0,0,1-4.4,7.54l-18,10.35A10.17,10.17,0,0,1,8.86,50V29.67a9.56,9.56,0,0,1,4.76-8.24L30.83,11.25A10.39,10.39,0,0,1,46.57,20v8.76L41.33,26.5V20.32a5,5,0,0,0-7.4-4.16Z"/></g><path class="cls-8" d="M18.6,19.89,36.48,9.36a6.56,6.56,0,0,1,4.7-.78c1.68.37,3.36,1.48,3.39,4.42,0,0-.47-7.44-7.41-8a10.09,10.09,0,0,0-5.81,1.34L13.48,16.57A8.85,8.85,0,0,0,9,24.24V51.11c0,4.22,4.62,6.39,8.23,4.21h0A2.4,2.4,0,0,1,14.55,53V27A8.18,8.18,0,0,1,18.6,19.89Z"/><path class="cls-9" d="M65.5,11.51l-1.25,1a7,7,0,0,0-2.5-2.05,7.34,7.34,0,0,0-3.19-.69,7,7,0,0,0-3.52.91,6.67,6.67,0,0,0-2.52,2.45,6.84,6.84,0,0,0-.89,3.47,6.5,6.5,0,0,0,2,4.85,6.89,6.89,0,0,0,5,1.95,7.11,7.11,0,0,0,5.59-2.62l1.25,1a7.94,7.94,0,0,1-3,2.34,9.31,9.31,0,0,1-4,.83A8.26,8.26,0,0,1,52,22.08a8.36,8.36,0,0,1-2-5.66,7.89,7.89,0,0,1,2.44-5.88,8.46,8.46,0,0,1,6.14-2.38,9,9,0,0,1,4,.88A7.77,7.77,0,0,1,65.5,11.51Z"/><path class="cls-10" d="M79,8.56l7.41,15.9H84.67l-2.5-5.23H75.32l-2.48,5.23H71.07l7.51-15.9Zm-.2,3.38L76,17.69h5.44Z"/><path class="cls-10" d="M92.63,8.56h8v1.55H94.22v5h6.38v1.55H94.22v7.81H92.63Z"/><path class="cls-10" d="M107.16,8.56h9.11v1.55h-7.52v5h7.46v1.55h-7.46V22.9h7.46v1.56h-9Z"/><path class="cls-11" d="M65.36,30.28l-2.12,2A6.56,6.56,0,0,0,58.38,30a5.33,5.33,0,0,0-5.4,5.4,5.66,5.66,0,0,0,.69,2.82,4.94,4.94,0,0,0,2,1.94,5.66,5.66,0,0,0,2.81.7,5.72,5.72,0,0,0,2.4-.49,8.52,8.52,0,0,0,2.4-1.79l2.05,2.14A11.23,11.23,0,0,1,62,43.12a9.09,9.09,0,0,1-3.57.66,8.22,8.22,0,0,1-6.07-2.35,8.13,8.13,0,0,1-2.36-6A8.2,8.2,0,0,1,51,31.18a8,8,0,0,1,3.08-3,8.71,8.71,0,0,1,4.32-1.13,9.14,9.14,0,0,1,6.93,3.2Z"/><path class="cls-11" d="M68.21,27.48h3.21a10.68,10.68,0,0,1,3.75.47A3.88,3.88,0,0,1,77,29.51a4.83,4.83,0,0,1,.68,2.59,4.43,4.43,0,0,1-.75,2.62,4.57,4.57,0,0,1-2.27,1.59l3.77,7.07H75.09l-3.57-6.73h-.28v6.73h-3Zm3,6.22h1a3.76,3.76,0,0,0,2-.38,1.45,1.45,0,0,0,.54-1.26,1.55,1.55,0,0,0-.27-.91,1.52,1.52,0,0,0-.72-.55,5.54,5.54,0,0,0-1.66-.17h-.83Z"/><path class="cls-11" d="M80.86,27.48h8.68v3H83.86v2.88h5.68v2.91H83.86v4.18h5.68v3H80.86Z"/><path class="cls-11" d="M97.21,27.48h3.07l6.11,15.9h-3.14L102,40.11H95.52l-1.3,3.27H91.08Zm1.55,4.22-2.13,5.45h4.25Z"/><path class="cls-11" d="M107.17,27.48H116v3h-2.9V43.38H110V30.46h-2.82Z"/><path class="cls-11" d="M117.81,27.48h3v15.9h-3Z"/><path class="cls-11" d="M131.73,27.08a7.92,7.92,0,0,1,5.8,2.44,8.49,8.49,0,0,1,0,11.85,8.32,8.32,0,0,1-11.77-.06,8.36,8.36,0,0,1,5.93-14.23Zm0,3A5,5,0,0,0,128,31.58a5.31,5.31,0,0,0-1.51,3.9,5.06,5.06,0,0,0,1.9,4.17,5.17,5.17,0,0,0,3.37,1.2,5,5,0,0,0,3.67-1.55,5.6,5.6,0,0,0,0-7.68A5,5,0,0,0,131.7,30Z"/><path class="cls-11" d="M142.83,27.48h2.9l6.8,10.46V27.48h3v15.9h-2.91L145.85,33V43.38h-3Z"/><path class="cls-12" d="M53,47.86v2.89H52.6v-.49a1.61,1.61,0,0,1-.53.42,1.33,1.33,0,0,1-.63.15,1.41,1.41,0,0,1-1-.45,1.52,1.52,0,0,1,1.06-2.59,1.34,1.34,0,0,1,.64.15,1.54,1.54,0,0,1,.51.45v-.53Zm-1.48.29a1.1,1.1,0,0,0-.57.15,1,1,0,0,0-.42.43,1.1,1.1,0,0,0-.16.58,1.16,1.16,0,0,0,.16.59,1.09,1.09,0,0,0,.42.43,1.13,1.13,0,0,0,.57.15,1.16,1.16,0,0,0,.57-.15,1,1,0,0,0,.43-.42,1.25,1.25,0,0,0,.14-.59,1.17,1.17,0,0,0-.33-.84A1.1,1.1,0,0,0,51.48,48.15Z"/><path class="cls-13" d="M64.59,46.75v4h-.36v-.49a1.61,1.61,0,0,1-.53.42,1.33,1.33,0,0,1-.63.15,1.41,1.41,0,0,1-1-.45,1.53,1.53,0,0,1,0-2.15,1.46,1.46,0,0,1,1.06-.44,1.37,1.37,0,0,1,.64.15,1.54,1.54,0,0,1,.51.45V46.75Zm-1.48,1.4a1.17,1.17,0,0,0-.58.15,1.06,1.06,0,0,0-.41.43,1.1,1.1,0,0,0-.16.58,1.16,1.16,0,0,0,.16.59,1.09,1.09,0,0,0,.42.43,1.1,1.1,0,0,0,.57.15,1.16,1.16,0,0,0,.57-.15,1,1,0,0,0,.42-.42,1.15,1.15,0,0,0,.15-.59,1.17,1.17,0,0,0-.33-.84A1.1,1.1,0,0,0,63.11,48.15Z"/><path class="cls-12" d="M69.5,49.79l.31.17a1.86,1.86,0,0,1-.35.49,1.46,1.46,0,0,1-.46.28,1.7,1.7,0,0,1-.57.1,1.36,1.36,0,0,1-1.1-.47,1.58,1.58,0,0,1-.07-2,1.38,1.38,0,0,1,1.15-.55,1.41,1.41,0,0,1,1.18.56,1.53,1.53,0,0,1,.32,1h-2.6a1.17,1.17,0,0,0,.32.82,1,1,0,0,0,.77.32,1.25,1.25,0,0,0,.43-.07.93.93,0,0,0,.35-.21A1.49,1.49,0,0,0,69.5,49.79Zm0-.77a1.19,1.19,0,0,0-.22-.48,1.09,1.09,0,0,0-.37-.29,1.21,1.21,0,0,0-.49-.11,1.1,1.1,0,0,0-.74.28,1.23,1.23,0,0,0-.33.6Z"/><path class="cls-14" d="M72.18,46.75h.37v4h-.37Z"/><path class="cls-15" d="M75.08,46.67a.29.29,0,0,1,.22.09.31.31,0,0,1,0,.44.29.29,0,0,1-.22.09.29.29,0,0,1-.21-.09.31.31,0,0,1,0-.44A.29.29,0,0,1,75.08,46.67Zm-.18,1.19h.37v2.89H74.9Z"/><path class="cls-16" d="M80.17,47.86h.37v2.31a2.76,2.76,0,0,1-.11.89,1.12,1.12,0,0,1-.5.61,1.7,1.7,0,0,1-.87.21,2,2,0,0,1-.67-.1,1.38,1.38,0,0,1-.48-.28,1.68,1.68,0,0,1-.35-.52H78a1.06,1.06,0,0,0,.42.42,1.3,1.3,0,0,0,.65.14,1.38,1.38,0,0,0,.64-.14.89.89,0,0,0,.38-.36,1.64,1.64,0,0,0,.11-.69V50.2a1.3,1.3,0,0,1-.52.41,1.53,1.53,0,0,1-.64.14A1.5,1.5,0,0,1,77.72,50a1.42,1.42,0,0,1-.19-.73,1.41,1.41,0,0,1,.2-.75,1.39,1.39,0,0,1,.55-.55,1.49,1.49,0,0,1,.74-.2,1.39,1.39,0,0,1,.61.13,1.9,1.9,0,0,1,.54.44Zm-1.1.29a1.2,1.2,0,0,0-.59.15,1.06,1.06,0,0,0-.42.42,1.21,1.21,0,0,0-.16.58,1.07,1.07,0,0,0,.32.79,1.14,1.14,0,0,0,.83.31,1.09,1.09,0,0,0,.82-.31,1.07,1.07,0,0,0,.32-.81A1.14,1.14,0,0,0,80,48.7a1,1,0,0,0-.4-.4A1.16,1.16,0,0,0,79.07,48.15Z"/><path class="cls-14" d="M83,46.75h.37v1.63a1.46,1.46,0,0,1,.5-.44,1.17,1.17,0,0,1,.58-.15A1,1,0,0,1,85,48a1,1,0,0,1,.37.44,2.37,2.37,0,0,1,.12.87v1.49h-.37V49.37a4.12,4.12,0,0,0,0-.66.76.76,0,0,0-.25-.43.73.73,0,0,0-.48-.15.92.92,0,0,0-.6.22,1.09,1.09,0,0,0-.36.56,4.27,4.27,0,0,0,0,.78v1.06H83Z"/><path class="cls-17" d="M88.24,46.79h.37v1.07h.59v.32h-.59v2.57h-.37V48.18h-.51v-.32h.51Z"/><path class="cls-12" d="M99,47.79a1.43,1.43,0,0,1,1.1.48,1.55,1.55,0,0,1,0,2.1,1.51,1.51,0,0,1-2.17,0,1.49,1.49,0,0,1-.42-1,1.52,1.52,0,0,1,.4-1A1.43,1.43,0,0,1,99,47.79Zm0,.36a1.1,1.1,0,0,0-.8.34,1.16,1.16,0,0,0-.33.83,1.2,1.2,0,0,0,.15.59,1.1,1.1,0,0,0,.41.42,1.21,1.21,0,0,0,1.13,0,1,1,0,0,0,.41-.42,1.11,1.11,0,0,0,.16-.59,1.17,1.17,0,0,0-.34-.83A1.1,1.1,0,0,0,99,48.15Z"/><path class="cls-15" d="M104.05,46.75v.36a.86.86,0,0,0-.35-.09.35.35,0,0,0-.18,0,.17.17,0,0,0-.09.1,1.53,1.53,0,0,0,0,.3v.39H104v.32h-.61v2.57H103V48.18h-.38v-.32H103v-.45a1.46,1.46,0,0,1,0-.44.53.53,0,0,1,.2-.22.67.67,0,0,1,.33-.08A1.59,1.59,0,0,1,104.05,46.75Z"/><path class="cls-13" d="M115.36,46.75v4H115v-.49a1.61,1.61,0,0,1-.53.42,1.33,1.33,0,0,1-.63.15,1.41,1.41,0,0,1-1-.45,1.53,1.53,0,0,1,0-2.15,1.44,1.44,0,0,1,1.06-.44,1.37,1.37,0,0,1,.64.15,1.54,1.54,0,0,1,.51.45V46.75Zm-1.48,1.4a1.17,1.17,0,0,0-.58.15,1.06,1.06,0,0,0-.41.43,1.1,1.1,0,0,0-.16.58,1.16,1.16,0,0,0,.16.59,1.12,1.12,0,0,0,1,.58,1.17,1.17,0,0,0,.58-.15,1.06,1.06,0,0,0,.42-.42,1.15,1.15,0,0,0,.15-.59,1.17,1.17,0,0,0-.33-.84A1.1,1.1,0,0,0,113.88,48.15Z"/><path class="cls-12" d="M120.27,49.79l.31.17a1.86,1.86,0,0,1-.35.49,1.46,1.46,0,0,1-.46.28,1.7,1.7,0,0,1-.57.1,1.4,1.4,0,0,1-1.11-.47,1.58,1.58,0,0,1-.39-1,1.55,1.55,0,0,1,.33-1,1.38,1.38,0,0,1,1.15-.55,1.42,1.42,0,0,1,1.18.56,1.59,1.59,0,0,1,.32,1h-2.6a1.12,1.12,0,0,0,.32.82,1,1,0,0,0,.77.32,1.25,1.25,0,0,0,.43-.07.93.93,0,0,0,.35-.21A1.49,1.49,0,0,0,120.27,49.79Zm0-.77a1.19,1.19,0,0,0-.22-.48,1.09,1.09,0,0,0-.37-.29,1.22,1.22,0,0,0-.5-.11,1.09,1.09,0,0,0-.73.28,1.15,1.15,0,0,0-.33.6Z"/><path class="cls-13" d="M125.89,46.75v4h-.37v-.49a1.58,1.58,0,0,1-.52.42,1.45,1.45,0,0,1-1.69-.3,1.48,1.48,0,0,1-.43-1.08,1.5,1.5,0,0,1,1.49-1.51,1.34,1.34,0,0,1,1.15.6V46.75Zm-1.49,1.4a1.1,1.1,0,0,0-.57.15,1,1,0,0,0-.42.43,1.19,1.19,0,0,0-.15.58,1.26,1.26,0,0,0,.15.59,1.24,1.24,0,0,0,.42.43,1.16,1.16,0,0,0,.57.15,1.19,1.19,0,0,0,.58-.15,1.06,1.06,0,0,0,.42-.42,1.15,1.15,0,0,0,.15-.59,1.18,1.18,0,0,0-.34-.84A1.1,1.1,0,0,0,124.4,48.15Z"/><path class="cls-15" d="M128.49,46.67a.29.29,0,0,1,.22.09.31.31,0,0,1,0,.44.29.29,0,0,1-.22.09.29.29,0,0,1-.21-.09.31.31,0,0,1,0-.44A.29.29,0,0,1,128.49,46.67Zm-.18,1.19h.37v2.89h-.37Z"/><path class="cls-12" d="M133.89,48.46l-.3.19a1.31,1.31,0,0,0-1.92-.17,1.1,1.1,0,0,0-.35.82,1.28,1.28,0,0,0,.16.6,1.16,1.16,0,0,0,.45.43,1.34,1.34,0,0,0,1.66-.35l.3.19a1.37,1.37,0,0,1-.56.48,1.7,1.7,0,0,1-.79.18,1.58,1.58,0,0,1-1.14-.44,1.41,1.41,0,0,1-.45-1.06,1.52,1.52,0,0,1,.21-.78,1.42,1.42,0,0,1,.58-.56,1.78,1.78,0,0,1,1.38-.11,1.35,1.35,0,0,1,.45.22A1.38,1.38,0,0,1,133.89,48.46Z"/><path class="cls-12" d="M139.11,47.86v2.89h-.36v-.49a1.61,1.61,0,0,1-.53.42,1.33,1.33,0,0,1-.63.15,1.41,1.41,0,0,1-1.05-.45,1.53,1.53,0,0,1,0-2.15,1.44,1.44,0,0,1,1.06-.44,1.37,1.37,0,0,1,.64.15,1.54,1.54,0,0,1,.51.45v-.53Zm-1.48.29a1.17,1.17,0,0,0-.58.15,1.06,1.06,0,0,0-.41.43,1.1,1.1,0,0,0-.16.58,1.16,1.16,0,0,0,.16.59,1.12,1.12,0,0,0,1,.58,1.17,1.17,0,0,0,.58-.15,1.06,1.06,0,0,0,.42-.42,1.15,1.15,0,0,0,.15-.59,1.17,1.17,0,0,0-.33-.84A1.1,1.1,0,0,0,137.63,48.15Z"/><path class="cls-17" d="M141.91,46.79h.37v1.07h.59v.32h-.59v2.57h-.37V48.18h-.51v-.32h.51Z"/><path class="cls-15" d="M145.19,46.67a.29.29,0,0,1,.21.09.31.31,0,0,1,0,.44.29.29,0,0,1-.21.09.29.29,0,0,1-.22-.09.31.31,0,0,1,0-.44A.29.29,0,0,1,145.19,46.67ZM145,47.86h.37v2.89H145Z"/><path class="cls-12" d="M149.15,47.79a1.43,1.43,0,0,1,1.1.48,1.55,1.55,0,0,1,0,2.1,1.51,1.51,0,0,1-2.17,0,1.49,1.49,0,0,1-.42-1,1.52,1.52,0,0,1,.4-1A1.43,1.43,0,0,1,149.15,47.79Zm0,.36a1.08,1.08,0,0,0-.79.34,1.13,1.13,0,0,0-.34.83,1.11,1.11,0,0,0,.16.59,1,1,0,0,0,.41.42,1.21,1.21,0,0,0,1.13,0,1.1,1.1,0,0,0,.41-.42,1.2,1.2,0,0,0,.15-.59,1.16,1.16,0,0,0-.33-.83A1.1,1.1,0,0,0,149.14,48.15Z"/><path class="cls-18" d="M153,47.86h.37v.52a1.46,1.46,0,0,1,.5-.44,1.18,1.18,0,0,1,.59-.15A1,1,0,0,1,155,48a1,1,0,0,1,.37.45,2.28,2.28,0,0,1,.12.86v1.49h-.37V49.37a3.17,3.17,0,0,0,0-.66.71.71,0,0,0-.25-.43.73.73,0,0,0-.48-.15,1,1,0,0,0-.6.22,1,1,0,0,0-.35.56,3.33,3.33,0,0,0-.06.78v1.06H153Z"/></g></g></g></svg>